# xmcd CD database file
#
# Track frame offsets:
#	150
#	18272
#	35967
#	54955
#	67017
#	86127
#	103290
#	118282
#	135260
#	153715
#
# Disc length: 2248 seconds
#
# Revision: 0
# Processed by: cddbd v1.5.2PL0 Copyright (c) Steve Scherf et al.
# Submitted via: CDex 1.70beta2
#
DISCID=8e08c60a
DTITLE=The Great Unknowns - The Great Unknowns
DYEAR=2004
DGENRE=Country
TTITLE0=Las Vegas
TTITLE1=When I Was Your Girl
TTITLE2=Round Hill
TTITLE3=Forever
TTITLE4=Abilene
TTITLE5=Something To Do
TTITLE6=Don't Come Home
TTITLE7=1000 Miles From Tennessee
TTITLE8=Deliver Me Home
TTITLE9=We'll Be Okay
EXTD=YEAR: 2004
EXTT0=
EXTT1=
EXTT2=
EXTT3=
EXTT4=
EXTT5=
EXTT6=
EXTT7=
EXTT8=
EXTT9=
PLAYORDER=
